<?xml version="1.0" standalone="no"?>
<!DOCTYPE svg PUBLIC "-//W3C//DTD SVG 20010904//EN"
 "http://www.w3.org/TR/2001/REC-SVG-20010904/DTD/svg10.dtd">
<svg version="1.0" xmlns="http://www.w3.org/2000/svg"
 width="512.000000pt" height="512.000000pt" viewBox="0 0 512.000000 512.000000"
 preserveAspectRatio="xMidYMid meet">

<g transform="translate(0.000000,512.000000) scale(0.100000,-0.100000)"
fill="#000000" stroke="none">
<path d="M2315 4143 c-804 -3 -871 -4 -882 -20 -10 -13 -13 -166 -13 -685 l0
-668 -135 0 c-122 0 -137 -2 -155 -20 -20 -20 -20 -33 -20 -659 0 -568 2 -641
16 -655 12 -13 41 -16 155 -16 l139 0 0 -201 c0 -119 4 -208 10 -220 10 -19
34 -19 1130 -19 1096 0 1120 0 1130 19 6 12 10 101 10 220 l0 201 139 0 c114
0 143 3 155 16 14 14 16 87 16 655 0 626 0 639 -20 659 -18 18 -33 20 -155 20
l-135 0 0 443 0 442 -242 241 c-134 133 -250 243 -258 245 -8 2 -406 3 -885 2z
m827 -216 c3 -110 7 -129 32 -180 15 -31 45 -72 68 -91 60 -52 113 -66 245
-66 l113 0 0 -410 0 -410 -1040 0 -1040 0 0 640 0 640 809 0 809 0 4 -123z
m388 -241 c0 -5 -35 -7 -79 -4 -150 9 -211 73 -211 224 l0 79 145 -145 c80
-80 145 -149 145 -154z m380 -1596 l0 -580 -1350 0 -1350 0 0 580 0 580 1350
0 1350 0 0 -580z m-310 -845 l0 -175 -1040 0 -1040 0 0 175 0 175 1040 0 1040
0 0 -175z"/>
<path d="M1812 3588 c-7 -7 -12 -21 -12 -33 0 -45 -4 -45 557 -45 l532 0 12
21 c8 16 8 28 0 45 l-11 24 -533 0 c-401 0 -536 -3 -545 -12z"/>
<path d="M1812 3328 c-7 -7 -12 -21 -12 -33 0 -12 5 -26 12 -33 17 -17 1479
-17 1496 0 7 7 12 21 12 33 0 12 -5 26 -12 33 -17 17 -1479 17 -1496 0z"/>
<path d="M1812 3068 c-7 -7 -12 -21 -12 -33 0 -12 5 -26 12 -33 17 -17 1479
-17 1496 0 7 7 12 21 12 33 0 12 -5 26 -12 33 -17 17 -1479 17 -1496 0z"/>
<path d="M1945 2388 c-32 -11 -91 -52 -113 -78 -7 -8 -25 -40 -40 -70 -23 -48
-27 -67 -27 -150 1 -115 25 -179 90 -239 104 -96 285 -90 370 11 26 31 55 86
55 106 0 7 -94 42 -113 42 -3 0 -8 -12 -12 -27 -20 -88 -135 -125 -206 -66
-45 38 -59 79 -59 176 0 66 4 92 23 127 44 87 150 106 213 38 17 -19 33 -40
35 -46 3 -9 18 -9 62 0 31 7 57 16 57 20 0 5 -9 26 -20 47 -24 48 -79 95 -129
110 -47 14 -145 13 -186 -1z"/>
<path d="M2390 2090 l0 -300 60 0 60 0 0 114 0 114 108 3 c85 3 114 8 142 25
98 57 117 200 39 289 -42 47 -79 55 -256 55 l-153 0 0 -300z m289 185 c31 -16
41 -33 41 -71 0 -60 -41 -84 -146 -84 l-64 0 0 85 0 85 70 0 c43 0 82 -6 99
-15z"/>
<path d="M2950 2090 l0 -300 60 0 60 0 0 130 0 130 125 0 125 0 0 50 0 50
-125 0 -125 0 0 70 0 70 145 0 145 0 0 50 0 50 -205 0 -205 0 0 -300z"/>
</g>
</svg>
