<?xml version="1.0" standalone="no"?>
<!DOCTYPE svg PUBLIC "-//W3C//DTD SVG 20010904//EN"
 "http://www.w3.org/TR/2001/REC-SVG-20010904/DTD/svg10.dtd">
<svg version="1.0" xmlns="http://www.w3.org/2000/svg"
 width="225.000000pt" height="225.000000pt" viewBox="0 0 225.000000 225.000000"
 preserveAspectRatio="xMidYMid meet">

<g transform="translate(0.000000,225.000000) scale(0.100000,-0.100000)"
fill="#000000" stroke="none">
<path d="M96 1960 c-15 -5 -37 -17 -48 -27 -48 -43 -48 -36 -48 -810 0 -673 1
-731 18 -762 9 -19 30 -44 45 -55 28 -21 32 -21 1060 -21 l1032 0 34 24 c63
45 61 18 61 816 0 798 2 771 -61 816 l-34 24 -1015 2 c-558 1 -1028 -2 -1044
-7z m2014 -200 l0 -70 -985 0 -985 0 0 70 0 70 985 0 985 0 0 -70z m0 -845 l0
-495 -985 0 -985 0 0 495 0 495 985 0 985 0 0 -495z"/>
<path d="M615 1321 c-127 -35 -185 -107 -193 -241 -5 -93 20 -161 79 -214 68
-62 194 -83 298 -49 l51 16 0 52 0 53 -36 -18 c-119 -61 -231 -17 -255 101
-14 67 0 126 40 171 25 28 36 32 93 36 51 3 76 0 112 -16 l46 -21 0 50 c0 48
-1 51 -37 66 -44 18 -154 26 -198 14z"/>
<path d="M960 1066 l0 -256 65 0 64 0 3 88 3 87 90 5 c140 8 195 55 195 168 0
58 -28 106 -80 136 -30 18 -55 21 -187 24 l-153 4 0 -256z m273 133 c24 -30
21 -66 -8 -94 -20 -21 -34 -25 -80 -25 l-55 0 0 68 c0 38 3 72 8 76 4 5 32 6
62 3 40 -5 60 -12 73 -28z"/>
<path d="M1480 1065 l0 -255 65 0 65 0 0 110 0 110 105 0 105 0 0 45 0 45
-105 0 -105 0 0 50 0 50 110 0 110 0 0 50 0 50 -175 0 -175 0 0 -255z"/>
<path d="M280 630 l0 -70 140 0 140 0 0 70 0 70 -140 0 -140 0 0 -70z"/>
<path d="M702 633 l3 -68 138 -3 137 -3 0 71 0 70 -140 0 -141 0 3 -67z"/>
<path d="M1130 630 l0 -71 138 3 137 3 3 68 3 67 -141 0 -140 0 0 -70z"/>
<path d="M1550 630 l0 -71 68 3 67 3 3 68 3 67 -71 0 -70 0 0 -70z"/>
<path d="M1830 630 l0 -70 70 0 70 0 0 70 0 70 -70 0 -70 0 0 -70z"/>
</g>
</svg>
