<?xml version="1.0" standalone="no"?>
<!DOCTYPE svg PUBLIC "-//W3C//DTD SVG 20010904//EN"
 "http://www.w3.org/TR/2001/REC-SVG-20010904/DTD/svg10.dtd">
<svg version="1.0" xmlns="http://www.w3.org/2000/svg"
 width="257.000000pt" height="75.000000pt" viewBox="0 0 257.000000 75.000000"
 preserveAspectRatio="xMidYMid meet">

<g transform="translate(0.000000,75.000000) scale(0.100000,-0.100000)"
fill="#000000" stroke="none">
<path d="M450 741 c0 -5 9 -7 20 -4 11 3 20 7 20 9 0 2 -9 4 -20 4 -11 0 -20
-4 -20 -9z"/>
<path d="M378 733 c7 -3 16 -2 19 1 4 3 -2 6 -13 5 -11 0 -14 -3 -6 -6z"/>
<path d="M410 731 c0 -5 5 -13 10 -16 6 -3 10 -2 10 4 0 5 -4 13 -10 16 -5 3
-10 2 -10 -4z"/>
<path d="M515 731 c-3 -5 -1 -12 4 -15 5 -3 11 1 15 9 6 16 -9 21 -19 6z"/>
<path d="M320 720 c8 -5 24 -10 35 -10 17 0 17 2 5 10 -8 5 -24 10 -35 10 -17
0 -17 -2 -5 -10z"/>
<path d="M580 720 c-12 -8 -12 -10 5 -10 11 0 27 5 35 10 12 8 12 10 -5 10
-11 0 -27 -5 -35 -10z"/>
<path d="M466 711 c-6 -9 -21 -12 -47 -8 -22 3 -39 1 -39 -5 0 -5 -15 -9 -32
-8 -53 3 -63 1 -52 -10 14 -14 351 -9 344 5 -3 6 -19 9 -37 7 -21 -2 -34 2
-41 14 -6 11 -11 13 -16 5 -10 -15 -63 -14 -68 1 -3 9 -6 9 -12 -1z"/>
<path d="M260 595 l-53 -54 19 -42 c23 -53 23 -138 -1 -193 -19 -44 -24 -141
-9 -156 8 -8 9 6 6 43 -3 36 2 74 17 121 26 83 26 106 1 176 l-19 55 49 48 49
47 153 0 154 0 48 -49 48 -49 -17 -45 c-20 -53 -16 -141 9 -229 13 -44 15 -66
7 -93 -5 -19 -6 -35 -1 -35 10 0 20 36 20 73 0 15 -9 53 -20 84 -26 75 -26
157 0 208 l20 39 -52 53 -52 53 -161 0 -161 0 -54 -55z"/>
<path d="M1920 470 l0 -140 35 0 35 0 0 140 0 140 -35 0 -35 0 0 -140z"/>
<path d="M1000 465 l0 -135 29 0 c29 0 30 2 33 52 l3 52 40 0 c36 1 40 4 40
26 0 22 -5 25 -42 28 -40 3 -43 5 -43 33 0 29 0 29 59 29 57 0 58 1 53 25 -4
24 -7 25 -88 25 l-84 0 0 -135z"/>
<path d="M1590 571 c-15 -4 -26 -15 -28 -29 -2 -12 -8 -22 -13 -22 -13 0 -11
-48 2 -52 6 -2 12 -25 13 -51 1 -32 8 -54 22 -67 23 -23 82 -35 103 -22 21 15
4 50 -27 54 -24 3 -27 7 -27 43 0 34 3 40 23 43 31 5 27 46 -5 50 -18 3 -23
10 -23 33 0 31 -1 31 -40 20z"/>
<path d="M395 530 c-16 -7 -17 -9 -3 -9 9 -1 20 4 23 9 7 11 7 11 -20 0z"/>
<path d="M439 527 c7 -7 14 -8 21 -1 6 6 2 10 -12 11 -16 2 -18 -1 -9 -10z"/>
<path d="M500 529 c0 -5 5 -7 10 -4 6 3 10 8 10 11 0 2 -4 4 -10 4 -5 0 -10
-5 -10 -11z"/>
<path d="M548 523 c7 -3 16 -2 19 1 4 3 -2 6 -13 5 -11 0 -14 -3 -6 -6z"/>
<path d="M1224 520 c-62 -25 -82 -107 -39 -158 61 -72 195 -31 195 60 0 81
-78 130 -156 98z m82 -77 c9 -33 -7 -58 -36 -58 -29 0 -45 25 -36 58 5 22 12
27 36 27 24 0 31 -5 36 -27z"/>
<path d="M1760 523 c-8 -2 -21 -6 -27 -8 -10 -3 -10 -10 -2 -28 8 -19 16 -22
43 -19 19 2 37 -1 40 -7 5 -7 -5 -11 -27 -11 -41 0 -67 -25 -67 -67 0 -37 21
-56 58 -55 15 1 47 2 71 2 l43 1 -4 80 c-3 70 -6 83 -27 100 -22 18 -68 24
-101 12z m58 -125 c-5 -15 -48 -24 -48 -10 0 14 12 22 33 22 10 0 17 -5 15
-12z"/>
<path d="M2058 514 c-15 -8 -32 -23 -38 -34 -15 -28 -12 -92 5 -117 19 -27 81
-45 124 -37 36 8 45 17 37 42 -4 12 -17 17 -47 17 -25 0 -44 5 -46 13 -4 9 12
12 57 12 l62 0 -7 33 c-11 48 -23 67 -51 77 -35 14 -64 12 -96 -6z m77 -54 c4
-6 -7 -10 -25 -10 -18 0 -29 4 -25 10 3 6 15 10 25 10 10 0 22 -4 25 -10z"/>
<path d="M2423 520 c-18 -8 -21 -14 -14 -32 7 -19 14 -22 44 -20 19 2 38 -1
42 -7 4 -7 -7 -11 -29 -11 -40 0 -76 -28 -76 -59 0 -32 33 -64 66 -63 16 1 48
2 72 2 l42 1 0 64 c0 35 -5 75 -11 88 -19 42 -82 59 -136 37z m75 -122 c-5
-15 -48 -24 -48 -10 0 14 12 22 33 22 10 0 17 -5 15 -12z"/>
<path d="M1390 425 l0 -95 35 0 35 0 0 61 c0 58 1 61 30 72 24 9 29 16 24 32
-9 29 -12 30 -44 18 -18 -7 -32 -7 -36 -2 -3 5 -14 9 -25 9 -17 0 -19 -8 -19
-95z"/>
<path d="M2220 496 c0 -21 5 -25 35 -28 l34 -3 -41 -52 c-56 -72 -49 -83 52
-83 78 0 80 1 80 24 0 22 -5 25 -40 28 l-39 3 39 52 c59 77 56 83 -40 83 -78
0 -80 -1 -80 -24z"/>
<path d="M377 501 c-17 -6 -17 -8 -3 -20 12 -10 16 -10 16 -1 0 8 26 11 93 10
108 -2 121 -1 87 10 -31 10 -169 11 -193 1z"/>
<path d="M757 484 c-4 -4 -2 -13 5 -21 8 -11 7 -12 -6 -7 -11 4 -16 1 -16 -10
0 -9 -5 -16 -12 -16 -6 0 -2 -9 10 -20 26 -25 36 -25 30 -2 -4 12 1 18 13 19
11 1 19 -5 19 -13 0 -8 6 -14 14 -14 9 0 13 10 12 25 0 14 -7 25 -14 25 -8 0
-21 9 -31 21 -9 11 -20 17 -24 13z"/>
<path d="M415 450 c3 -5 8 -10 11 -10 2 0 4 5 4 10 0 6 -5 10 -11 10 -5 0 -7
-4 -4 -10z"/>
<path d="M96 435 c-6 -18 12 -61 22 -51 3 4 0 12 -6 18 -7 7 -12 16 -12 21 0
5 9 -1 19 -14 l19 -24 29 25 28 25 -24 -27 c-32 -37 -20 -48 15 -13 21 22 24
29 13 36 -9 5 -23 2 -37 -7 -26 -17 -46 -10 -22 7 13 9 13 10 -1 6 -9 -3 -21
-1 -26 4 -7 7 -12 5 -17 -6z"/>
<path d="M445 430 c5 -8 -48 -66 -66 -73 -8 -2 -2 -3 14 -1 21 3 27 -1 27 -16
0 -15 -7 -20 -27 -21 l-28 -1 30 -9 c29 -8 28 -8 -7 -6 -21 2 -38 -1 -38 -5 0
-4 -11 -8 -25 -8 -13 0 -28 -6 -32 -14 -4 -8 -19 -16 -33 -18 -21 -2 -25 -9
-28 -42 -2 -21 1 -43 6 -48 5 -5 33 -2 67 7 33 8 74 15 93 15 18 0 31 4 28 9
-3 5 8 11 25 15 43 8 46 8 61 -7 7 -7 42 -19 78 -25 36 -6 77 -15 93 -18 26
-6 27 -5 27 40 0 41 -3 48 -27 58 -16 7 -35 21 -44 30 -17 19 -34 25 -24 8 3
-5 1 -10 -4 -10 -6 0 -11 4 -11 8 0 4 -16 6 -35 4 l-35 -4 0 44 c0 54 -20 84
-59 90 -17 2 -28 1 -26 -2z m184 -161 c59 -12 85 -36 28 -25 -23 4 -45 2 -59
-6 -30 -16 -48 -19 -48 -7 0 5 9 9 19 9 11 0 22 4 25 9 3 5 -37 9 -89 10 -52
1 -105 6 -117 11 -34 13 179 13 241 -1z m-221 -15 c41 -12 22 -19 -48 -19 -70
0 -94 10 -42 18 45 7 66 7 90 1z m246 -40 c28 -11 17 -19 -24 -19 -41 0 -54
10 -22 18 27 7 29 7 46 1z m-344 -14 c0 -5 -12 -10 -26 -10 -14 0 -23 4 -19
10 3 6 15 10 26 10 10 0 19 -4 19 -10z"/>
<path d="M581 424 c0 -11 3 -14 6 -6 3 7 2 16 -1 19 -3 4 -6 -2 -5 -13z"/>
<path d="M56 391 c-8 -12 14 -71 25 -71 12 0 11 6 -6 40 -9 17 -13 30 -11 30
10 0 37 -61 31 -70 -9 -14 28 -29 50 -20 24 9 53 40 38 40 -6 0 -22 -9 -37
-21 -14 -11 -26 -17 -26 -12 0 5 17 19 38 32 l37 22 -35 -5 c-18 -4 -38 -12
-42 -19 -5 -8 -8 -5 -8 9 0 11 -8 28 -18 37 -21 19 -28 21 -36 8z"/>
<path d="M810 368 c0 -10 6 -18 14 -18 8 0 16 -5 18 -12 7 -21 25 1 21 24 -5
29 -53 33 -53 6z"/>
<path d="M373 333 c9 -2 23 -2 30 0 6 3 -1 5 -18 5 -16 0 -22 -2 -12 -5z"/>
<path d="M24 316 c-7 -19 16 -68 36 -74 12 -4 13 -2 3 9 -14 17 -35 69 -28 69
3 0 11 -15 20 -32 8 -18 20 -41 27 -50 17 -24 6 -31 -26 -17 -34 16 -44 4 -25
-29 12 -22 22 -26 47 -24 23 1 32 -2 32 -13 0 -8 -9 -15 -20 -15 -26 0 -25
-15 2 -34 45 -32 128 -4 113 37 -9 23 -22 22 -36 -4 -7 -14 -14 -18 -21 -11
-7 7 -3 17 11 31 21 21 27 51 14 64 -4 4 -19 -5 -35 -20 -15 -15 -29 -23 -29
-17 -1 5 -3 23 -5 40 -4 57 -66 126 -80 90z m37 -122 c13 -14 17 -23 9 -19
-13 5 -46 45 -37 45 2 0 14 -11 28 -26z m91 -3 c-9 -16 -18 -28 -21 -26 -4 5
27 55 34 55 2 0 -4 -13 -13 -29z m-7 -82 c5 -5 -6 -4 -25 2 -45 15 -54 24 -15
15 17 -4 34 -12 40 -17z"/>
<path d="M800 320 c0 -5 -7 -10 -16 -10 -13 0 -14 -3 -4 -15 7 -8 9 -22 6 -31
-4 -12 -2 -15 9 -10 9 3 15 0 15 -9 0 -9 -9 -15 -21 -15 -17 0 -19 -3 -10 -14
6 -7 8 -22 4 -31 -5 -15 -3 -17 11 -12 10 4 20 7 22 7 10 0 3 29 -8 34 -7 3
-4 4 7 3 25 -3 46 -22 43 -38 -2 -7 5 -15 16 -17 12 -3 16 0 11 8 -4 6 1 17
11 25 18 13 18 14 2 20 -10 4 -18 13 -18 21 0 17 -12 18 -27 3 -18 -18 -44 28
-32 58 12 32 12 33 -6 33 -8 0 -15 -4 -15 -10z"/>
<path d="M140 277 c-22 -11 -39 -57 -21 -57 18 0 50 33 48 50 -1 11 -1 20 -2
20 0 0 -11 -6 -25 -13z m20 -12 c0 -2 -10 -9 -22 -15 -22 -11 -22 -10 -4 4 21
17 26 19 26 11z"/>
<path d="M1200 160 c0 -27 5 -50 10 -50 6 0 10 7 10 15 0 9 11 20 24 25 50 19
43 60 -10 60 l-34 0 0 -50z m48 17 c2 -10 -3 -17 -12 -17 -10 0 -16 9 -16 21
0 24 23 21 28 -4z"/>
<path d="M1320 160 c0 -27 5 -50 10 -50 6 0 10 9 10 20 0 26 14 25 33 -2 8
-13 18 -20 22 -16 4 4 2 14 -5 23 -9 11 -10 18 -1 29 19 23 2 46 -35 46 l-34
0 0 -50z m50 25 c0 -8 -7 -15 -15 -15 -8 0 -15 7 -15 15 0 8 7 15 15 15 8 0
15 -7 15 -15z"/>
<path d="M1445 160 l0 -50 40 1 c30 2 33 3 13 6 -32 5 -36 20 -10 39 16 13 16
13 0 14 -26 0 -22 28 5 33 15 3 10 5 -13 6 l-35 1 0 -50z"/>
<path d="M1560 160 c0 -27 5 -50 10 -50 6 0 10 9 10 20 0 11 7 20 15 20 8 0
15 5 15 10 0 6 -7 10 -15 10 -27 0 -16 29 13 33 22 3 20 4 -10 6 l-38 1 0 -50z"/>
<path d="M1670 160 l0 -50 38 1 c30 2 32 3 10 6 -29 4 -40 33 -13 33 8 0 15 5
15 10 0 6 -7 10 -15 10 -24 0 -17 28 8 33 16 3 13 5 -10 6 l-33 1 0 -50z"/>
<path d="M1780 160 c0 -27 5 -50 10 -50 6 0 10 23 10 50 0 28 -4 50 -10 50 -5
0 -10 -22 -10 -50z"/>
<path d="M1858 200 c18 -8 22 -17 22 -50 0 -22 5 -40 10 -40 6 0 10 20 10 44
0 34 4 46 18 49 9 3 -5 5 -33 5 -39 1 -45 -1 -27 -8z"/>
<path d="M1970 172 c0 -21 5 -43 12 -50 15 -15 51 -15 66 0 14 14 16 88 2 88
-5 0 -10 -18 -10 -39 0 -24 -5 -41 -14 -44 -21 -8 -36 13 -36 50 0 18 -4 33
-10 33 -5 0 -10 -17 -10 -38z"/>
<path d="M2110 160 c0 -27 5 -50 10 -50 6 0 10 9 10 20 0 26 14 25 33 -2 8
-13 18 -20 22 -16 4 4 2 14 -5 23 -9 11 -10 18 -1 29 19 23 2 46 -35 46 l-34
0 0 -50z m50 25 c0 -8 -7 -15 -15 -15 -8 0 -15 7 -15 15 0 8 7 15 15 15 8 0
15 -7 15 -15z"/>
<path d="M2242 160 c-17 -41 -18 -50 -6 -50 7 0 14 5 14 10 0 15 48 12 53 -2
2 -7 7 -10 11 -7 9 9 -27 99 -40 99 -6 0 -21 -22 -32 -50z m34 -7 c-10 -10
-19 5 -10 18 6 11 8 11 12 0 2 -7 1 -15 -2 -18z"/>
<path d="M463 193 c9 -2 25 -2 35 0 9 3 1 5 -18 5 -19 0 -27 -2 -17 -5z"/>
<path d="M391 153 c7 -10 15 -20 16 -22 2 -2 3 5 3 17 0 14 -6 22 -16 22 -14
0 -15 -3 -3 -17z"/>
<path d="M432 150 c0 -14 2 -19 5 -12 2 6 2 18 0 25 -3 6 -5 1 -5 -13z"/>
<path d="M457 150 c3 -11 7 -20 8 -20 1 0 5 9 8 20 3 12 0 20 -8 20 -8 0 -11
-8 -8 -20z"/>
<path d="M491 153 c-1 -27 24 -31 33 -7 4 9 4 19 1 22 -2 3 -8 -3 -12 -13 -6
-18 -7 -18 -14 1 -7 17 -8 17 -8 -3z"/>
<path d="M537 151 c-3 -11 1 -22 9 -25 16 -6 28 10 20 29 -8 21 -23 18 -29 -4z
m20 -13 c-3 -8 -6 -5 -6 6 -1 11 2 17 5 13 3 -3 4 -12 1 -19z"/>
<path d="M750 152 c0 -11 -8 -23 -17 -27 -15 -5 -13 -9 12 -20 28 -11 32 -10
59 14 28 25 28 25 16 2 -9 -18 -9 -26 0 -35 9 -8 14 -8 17 2 3 6 11 12 19 12
16 0 19 16 4 25 -5 3 -7 12 -4 19 3 8 -4 16 -15 19 -12 3 -21 1 -21 -4 0 -6
-6 -9 -12 -8 -27 3 -39 -1 -32 -13 4 -7 3 -8 -5 -4 -6 4 -9 11 -6 16 3 5 1 11
-5 15 -5 3 -10 -3 -10 -13z m40 -36 c0 -3 -4 -8 -10 -11 -5 -3 -10 -1 -10 4 0
6 5 11 10 11 6 0 10 -2 10 -4z"/>
<path d="M340 142 c0 -11 7 -18 20 -18 13 0 19 5 15 14 -3 7 -5 16 -5 18 0 2
-7 4 -15 4 -8 0 -15 -8 -15 -18z"/>
<path d="M583 145 c-3 -9 -3 -18 -1 -21 3 -3 8 4 11 16 6 23 -1 27 -10 5z"/>
<path d="M608 142 c-4 -12 -2 -20 3 -16 5 3 9 0 9 -5 0 -6 5 -11 10 -11 6 0
10 9 10 21 0 11 -4 18 -9 15 -5 -4 -11 -1 -13 6 -3 7 -7 2 -10 -10z"/>
<path d="M290 131 c0 -15 6 -21 21 -21 14 0 19 5 17 17 -5 26 -38 29 -38 4z
m30 -1 c0 -5 -4 -10 -10 -10 -5 0 -10 5 -10 10 0 6 5 10 10 10 6 0 10 -4 10
-10z"/>
<path d="M250 120 c0 -11 4 -20 9 -20 6 0 9 9 8 20 -1 11 -5 20 -9 20 -4 0 -8
-9 -8 -20z"/>
<path d="M657 133 c-4 -3 -7 -13 -7 -20 0 -20 23 -11 26 10 2 17 -7 22 -19 10z"/>
<path d="M312 95 c-30 -8 -61 -19 -70 -25 -16 -9 -16 -9 1 -10 9 0 17 -4 17
-10 0 -5 4 -10 10 -10 5 0 7 7 4 15 -5 13 -2 13 30 0 19 -8 50 -15 69 -15 18
0 49 -8 69 -19 32 -16 39 -16 51 -4 7 8 41 18 74 23 34 4 71 14 83 20 20 11
22 10 17 -4 -4 -9 -2 -16 3 -16 6 0 10 4 10 9 0 5 8 11 18 13 10 2 -6 12 -38
23 -74 25 -272 31 -348 10z m131 -2 c-7 -2 -21 -2 -30 0 -10 3 -4 5 12 5 17 0
24 -2 18 -5z m90 0 c-7 -2 -21 -2 -30 0 -10 3 -4 5 12 5 17 0 24 -2 18 -5z
m-110 -39 c41 -13 53 -13 95 0 26 8 67 17 92 20 45 5 45 5 15 -9 -16 -8 -45
-14 -63 -15 -18 0 -46 -7 -62 -15 -27 -14 -33 -14 -60 0 -16 8 -44 15 -62 15
-18 1 -46 7 -63 15 -30 14 -30 14 15 9 25 -3 66 -12 93 -20z"/>
</g>
</svg>
