<?xml version="1.0" standalone="no"?>
<!DOCTYPE svg PUBLIC "-//W3C//DTD SVG 20010904//EN"
 "http://www.w3.org/TR/2001/REC-SVG-20010904/DTD/svg10.dtd">
<svg version="1.0" xmlns="http://www.w3.org/2000/svg"
 width="212.000000pt" height="237.000000pt" viewBox="0 0 212.000000 237.000000"
 preserveAspectRatio="xMidYMid meet">

<g transform="translate(0.000000,237.000000) scale(0.100000,-0.100000)"
fill="#000000" stroke="none">
<path d="M711 1857 c-22 -52 -41 -97 -41 -101 0 -3 13 -6 30 -6 19 0 33 7 40
20 14 26 77 28 95 3 12 -17 75 -28 75 -13 0 4 -18 48 -39 96 -40 89 -40 89
-79 92 l-39 3 -42 -94z m99 -14 c0 -7 -9 -13 -20 -13 -22 0 -23 3 -13 39 6 23
7 23 20 6 7 -11 13 -25 13 -32z"/>
<path d="M940 1850 l0 -100 25 2 c20 2 25 8 26 33 1 16 1 36 0 43 -1 6 2 19 7
28 6 11 13 -1 25 -46 16 -57 19 -60 43 -56 15 3 27 6 28 8 1 2 11 32 23 68
l21 65 1 -73 c1 -73 1 -73 27 -70 26 3 26 4 27 101 l2 97 -47 0 -47 0 -17 -57
-17 -58 -19 58 -20 57 -44 0 -44 0 0 -100z"/>
<path d="M1267 1930 c-60 -47 -40 -149 34 -171 46 -14 104 -4 130 22 26 26 24
36 -7 43 -17 5 -32 2 -43 -9 -21 -18 -52 -20 -69 -3 -18 18 -14 63 6 81 23 21
40 21 61 3 16 -15 71 -11 71 4 0 5 -12 18 -26 29 -37 29 -121 29 -157 1z"/>
<path d="M937 1703 c-10 -9 -8 -55 2 -72 5 -7 14 -10 20 -7 7 5 11 -1 11 -13
0 -18 -6 -21 -40 -21 -39 0 -54 15 -26 26 10 4 12 14 6 40 -5 20 -10 38 -13
40 -8 8 -37 -8 -31 -17 3 -5 1 -9 -5 -9 -5 0 -11 5 -13 11 -5 14 -38 0 -38
-17 0 -12 -4 -12 -20 -2 -10 7 -22 9 -26 6 -11 -12 16 -76 35 -81 11 -3 22
-18 26 -37 7 -30 9 -32 38 -26 113 23 221 29 309 17 51 -6 105 -14 119 -17 24
-5 28 -2 39 30 6 20 18 36 26 36 8 0 22 16 30 35 19 46 18 48 -11 43 -14 -3
-25 -2 -25 2 0 14 -32 21 -45 10 -9 -8 -14 -6 -19 5 -3 8 -12 15 -19 15 -17 0
-32 -73 -17 -78 6 -2 10 -10 10 -18 0 -11 -10 -14 -37 -12 -26 2 -38 8 -38 18
0 8 7 15 15 15 21 0 32 72 12 80 -8 3 -21 -3 -28 -12 -13 -17 -13 -17 -14 0 0
18 -40 25 -40 7 0 -5 -7 -10 -15 -10 -8 0 -15 5 -15 10 0 17 -48 11 -55 -7 -6
-17 -7 -17 -19 0 -7 9 -21 17 -30 17 -9 0 -16 -8 -16 -17 -1 -17 -1 -17 -11 0
-11 18 -21 21 -32 10z m103 -33 c11 0 20 7 20 15 0 8 6 15 14 15 8 0 16 -7 20
-15 8 -21 46 -19 46 3 1 16 1 16 11 0 12 -21 45 -24 52 -5 3 6 6 0 6 -15 l1
-28 -129 0 c-124 0 -129 1 -134 22 -7 24 3 41 10 21 7 -20 43 -16 43 5 1 16 1
16 11 0 5 -10 19 -18 29 -18z m-140 -20 c0 -14 -11 -22 -42 -30 -24 -6 -48
-13 -54 -15 -13 -4 -38 44 -28 54 4 3 9 0 11 -6 6 -18 33 -16 33 2 0 17 16 20
25 5 10 -16 35 -12 35 6 0 8 5 12 10 9 6 -3 10 -15 10 -25z m380 15 c0 -8 7
-15 15 -15 8 0 15 5 15 10 0 6 5 10 10 10 6 0 10 -7 10 -15 0 -18 36 -20 44
-2 3 6 3 -1 0 -18 -7 -38 -6 -37 -38 -25 -15 5 -38 10 -52 10 -20 0 -24 5 -24
30 0 17 5 30 10 30 6 0 10 -7 10 -15z m-210 -50 c0 -11 -12 -15 -45 -15 -42 0
-54 7 -38 23 3 4 24 7 45 7 27 0 38 -4 38 -15z m98 -2 c2 -9 -10 -13 -42 -13
-35 0 -46 4 -46 16 0 12 9 14 42 12 23 -2 43 -9 46 -15z m-288 -18 c0 -8 -4
-15 -9 -15 -5 0 -16 -3 -25 -6 -10 -4 -16 -1 -16 9 0 13 13 21 43 26 4 0 7 -6
7 -14z m449 -1 c10 -9 -12 -21 -34 -16 -25 4 -31 13 -18 25 6 6 42 0 52 -9z
m-259 -19 c0 -11 -11 -15 -40 -15 -38 0 -49 8 -33 23 3 4 21 7 40 7 23 0 33
-5 33 -15z m84 9 c31 -12 16 -24 -29 -24 -33 0 -45 4 -45 15 0 16 43 21 74 9z
m-179 -19 c0 -5 -17 -11 -37 -13 -38 -3 -53 12 -20 21 26 8 57 3 57 -8z m273
-2 c2 -9 -8 -13 -32 -13 -26 0 -36 4 -36 16 0 19 61 16 68 -3z m-358 -7 c0
-13 -20 -26 -41 -26 -14 0 -11 28 4 33 23 10 37 7 37 -7z m421 4 c4 0 6 -7 3
-15 -6 -14 -37 -13 -53 1 -9 8 13 25 26 20 8 -3 19 -6 24 -6z"/>
<path d="M766 1438 l-78 -73 27 -57 c41 -88 43 -147 9 -243 -21 -61 -28 -99
-28 -162 -1 -75 1 -85 29 -124 46 -65 106 -98 198 -108 42 -5 96 -18 119 -30
35 -17 44 -18 58 -7 23 20 78 36 124 36 67 0 133 29 181 81 74 79 80 149 29
298 -33 96 -31 179 8 263 l26 57 -78 70 -78 71 -235 0 -234 0 -77 -72z m211
-118 c9 0 22 8 29 18 13 16 13 16 14 0 0 -10 7 -18 16 -18 9 0 23 8 30 18 13
16 15 16 25 0 5 -10 15 -18 21 -18 6 0 17 8 24 18 12 16 13 16 19 0 8 -21 41
-24 48 -5 2 6 7 9 11 6 3 -3 3 -14 0 -24 -5 -13 -14 -15 -36 -11 -23 5 -28 2
-26 -11 2 -12 -4 -17 -19 -16 -39 1 -43 3 -43 14 0 5 4 7 10 4 5 -3 18 -1 27
4 14 8 -2 10 -61 11 -63 0 -77 -3 -73 -14 6 -16 -19 -30 -28 -16 -4 6 0 10 7
11 7 0 3 4 -9 9 -23 9 -30 30 -15 44 4 4 8 1 10 -8 2 -9 11 -16 19 -16z m89
-33 c4 -4 -5 -7 -19 -7 -15 0 -27 4 -27 10 0 11 35 8 46 -3z m124 -7 c0 -5 -2
-10 -4 -10 -3 0 -8 5 -11 10 -3 6 -1 10 4 10 6 0 11 -4 11 -10z m-150 -30 c0
-5 -13 -10 -30 -10 -16 0 -30 5 -30 10 0 6 14 10 30 10 17 0 30 -4 30 -10z
m70 0 c0 -5 -13 -10 -30 -10 -16 0 -30 5 -30 10 0 6 14 10 30 10 17 0 30 -4
30 -10z m70 0 c0 -5 -13 -10 -30 -10 -16 0 -30 5 -30 10 0 6 14 10 30 10 17 0
30 -4 30 -10z m-192 -38 c2 -7 -6 -12 -17 -12 -21 0 -27 11 -14 24 9 9 26 2
31 -12z m82 3 c0 -10 -11 -15 -35 -15 -33 0 -43 8 -28 23 13 14 63 7 63 -8z
m85 0 c0 -5 -15 -11 -32 -13 -25 -3 -33 1 -33 13 0 12 8 16 33 13 17 -2 32 -7
32 -13z m45 -2 c0 -7 -7 -13 -15 -13 -8 0 -15 6 -15 13 0 8 7 14 15 14 8 0 15
-6 15 -14z m-235 -44 c-10 -15 -25 -10 -19 6 4 8 10 12 15 9 5 -3 7 -10 4 -15z
m69 6 c-4 -8 -17 -15 -30 -15 -15 0 -24 6 -24 15 0 10 10 15 30 15 22 0 28 -4
24 -15z m144 -3 c3 -10 -4 -13 -24 -10 -15 2 -29 9 -32 16 -3 10 4 13 24 10
15 -2 29 -9 32 -16z m32 3 c0 -8 -4 -15 -10 -15 -5 0 -10 7 -10 15 0 8 5 15
10 15 6 0 10 -7 10 -15z m-222 -37 c-5 -15 -58 -24 -58 -10 0 15 12 22 38 22
14 0 22 -5 20 -12z m32 -3 c0 -8 -4 -15 -10 -15 -5 0 -10 7 -10 15 0 8 5 15
10 15 6 0 10 -7 10 -15z m131 2 c-1 -12 -15 -9 -19 4 -3 6 1 10 8 8 6 -3 11
-8 11 -12z m69 -3 c0 -10 -7 -14 -22 -12 -32 5 -35 28 -4 28 17 0 26 -5 26
-16z m-250 -33 c0 -5 -7 -12 -16 -15 -22 -9 -24 -8 -24 9 0 8 9 15 20 15 11 0
20 -4 20 -9z m50 -1 c0 -5 -9 -10 -20 -10 -11 0 -20 5 -20 10 0 6 9 10 20 10
11 0 20 -4 20 -10z m160 1 c0 -12 -21 -19 -37 -13 -22 8 -14 22 12 22 14 0 25
-4 25 -9z m50 -5 c0 -17 -32 -15 -38 2 -2 7 6 12 17 12 12 0 21 -6 21 -14z
m-240 -35 c0 -9 -24 -21 -41 -21 -5 0 -9 7 -9 15 0 9 9 15 25 15 14 0 25 -4
25 -9z m30 -1 c0 -5 -4 -10 -10 -10 -5 0 -10 5 -10 10 0 6 5 10 10 10 6 0 10
-4 10 -10z m138 -2 c-6 -18 -28 -21 -28 -4 0 9 7 16 16 16 9 0 14 -5 12 -12z
m62 -4 c0 -10 -7 -14 -22 -12 -32 5 -35 28 -4 28 17 0 26 -5 26 -16z m36 -39
c-3 -8 0 -15 7 -16 20 -1 -46 -28 -70 -29 -37 0 -26 -15 23 -29 35 -11 54 -11
81 -3 24 7 42 8 54 2 21 -12 66 -13 72 -2 3 4 -10 7 -29 8 -18 0 -42 8 -51 16
-10 9 -27 18 -37 19 -11 2 -21 9 -23 16 -6 16 52 26 76 13 12 -6 33 -9 48 -8
25 3 28 -1 35 -42 13 -67 4 -124 -28 -174 -39 -62 -66 -73 -111 -45 -28 17
-37 19 -43 9 -9 -15 -2 -40 11 -40 5 0 9 -4 9 -9 0 -5 -26 -12 -57 -16 -32 -3
-78 -14 -103 -24 -43 -16 -47 -16 -80 0 -19 10 -62 20 -95 24 -72 8 -135 25
-135 37 0 4 6 9 13 10 6 0 17 2 22 2 6 1 16 5 22 9 7 4 21 3 32 -3 11 -5 30
-10 43 -9 21 1 20 2 -5 9 -16 5 -34 14 -42 20 -9 8 -20 8 -32 2 -18 -10 -53
-15 -85 -13 -10 1 -23 11 -29 23 -12 22 -12 22 15 5 19 -13 36 -16 59 -11 18
4 64 7 102 7 39 0 57 1 40 4 -52 7 -62 12 -45 24 11 8 7 9 -15 6 -16 -3 -44 1
-61 8 -25 10 -35 10 -55 -1 -34 -19 -57 -17 -69 5 -15 29 -13 37 14 49 14 6
43 28 66 48 22 20 38 29 34 20 -7 -18 31 -37 74 -35 25 1 24 2 -8 11 -46 13
-66 32 -25 23 30 -6 30 -6 -7 16 -20 12 -41 31 -47 43 -9 18 -10 17 -7 -12 4
-31 1 -35 -37 -53 -39 -17 -77 -25 -77 -15 0 18 14 34 26 29 17 -6 74 16 74
29 0 5 -10 6 -22 2 -38 -12 -63 -10 -63 6 0 24 83 43 130 29 34 -9 41 -9 50 5
8 14 35 16 189 16 154 0 177 -2 172 -15z m47 -45 c26 0 -20 -20 -47 -20 -28 0
-29 1 -10 15 10 8 25 12 32 10 8 -3 19 -5 25 -5z m-567 -85 c-19 -14 -36 -12
-36 6 0 5 12 9 28 9 26 -1 26 -1 8 -15z m105 -85 c5 0 9 -4 9 -10 0 -5 -16
-10 -36 -10 -32 0 -35 2 -24 15 7 9 20 13 27 10 8 -3 19 -5 24 -5z m469 -88
c-7 -3 -19 3 -28 13 -16 15 -15 16 12 4 15 -7 23 -15 16 -17z"/>
<path d="M950 1007 c0 -18 36 -47 59 -47 10 0 6 6 -9 16 -14 10 -31 24 -37 32
-12 14 -13 14 -13 -1z"/>
<path d="M880 975 c-15 -8 -19 -14 -10 -15 28 0 60 12 54 21 -7 12 -14 11 -44
-6z"/>
<path d="M1050 970 c0 -6 15 -19 33 -30 l32 -20 -30 -2 c-47 -3 -57 -2 -105 5
-41 6 -43 6 -26 -8 11 -8 32 -15 48 -15 15 0 28 -4 28 -10 0 -17 55 -11 101
10 24 11 38 20 31 20 -7 0 -11 4 -8 9 4 5 -8 12 -26 16 -18 4 -43 13 -55 21
-14 8 -23 10 -23 4z"/>
<path d="M1365 911 c-3 -5 -19 -12 -35 -16 -20 -4 -30 -13 -30 -25 0 -22 20
-31 52 -23 23 5 23 5 3 -10 -11 -9 -29 -17 -39 -17 -15 0 -17 -3 -9 -11 8 -8
20 -6 42 6 17 9 36 13 41 10 6 -3 10 0 10 9 0 8 6 17 13 19 7 3 4 6 -7 6 -15
1 -16 4 -6 16 7 8 20 15 28 15 13 0 12 3 -4 15 -22 16 -50 19 -59 6z m37 -23
c-12 -12 -35 -1 -27 12 3 5 13 6 21 3 10 -4 12 -9 6 -15z"/>
<path d="M1130 865 c-14 -8 -38 -17 -55 -20 -29 -6 -29 -7 -11 -21 28 -20 81
-28 113 -16 25 9 22 11 -29 11 -34 1 -60 6 -64 14 -4 6 -4 9 1 5 4 -4 22 -1
40 6 20 9 38 10 46 5 8 -5 21 -8 29 -8 9 0 6 5 -7 11 -13 6 -23 15 -23 20 0
11 -10 9 -40 -7z"/>
<path d="M907 863 c-7 -6 -31 -10 -77 -12 -23 -2 -23 -3 -7 -12 13 -8 31 -8
62 0 24 6 61 11 81 11 21 0 35 2 33 4 -9 7 -86 15 -92 9z"/>
<path d="M950 834 c0 -17 23 -34 47 -34 13 0 23 5 23 10 0 6 -10 10 -23 10
-13 0 -28 5 -35 12 -7 7 -12 8 -12 2z"/>
<path d="M1170 788 c0 -12 24 -20 50 -16 17 2 14 5 -14 14 -20 6 -36 7 -36 2z"/>
<path d="M1160 754 c0 -10 -15 -14 -52 -15 -46 0 -50 -2 -28 -10 26 -11 122
-5 146 9 10 5 1 11 -26 19 -32 8 -40 8 -40 -3z"/>
<path d="M1030 690 c8 -5 31 -9 50 -9 32 1 33 2 10 9 -14 4 -36 8 -50 9 -20 1
-22 -1 -10 -9z"/>
<path d="M468 1339 c-10 -10 -24 -16 -32 -13 -17 6 -31 -12 -16 -21 5 -3 7
-18 4 -31 -6 -24 -5 -25 27 -20 30 4 32 3 16 -9 -17 -12 -17 -16 -3 -42 8 -15
16 -21 16 -13 1 8 10 -3 22 -25 11 -22 27 -44 34 -48 16 -9 19 -47 3 -47 -6 0
-9 8 -7 17 3 14 -47 77 -62 78 -3 0 -10 4 -16 8 -7 4 -15 0 -18 -9 -8 -22 -8
-26 3 -19 5 3 12 -3 14 -12 4 -17 5 -17 6 0 1 25 14 21 37 -10 28 -38 34 -66
19 -87 -12 -15 -15 -12 -30 29 -10 25 -20 44 -22 42 -2 -3 1 -17 7 -33 7 -16
13 -53 16 -83 4 -51 3 -53 -12 -35 -15 18 -15 18 -5 -3 13 -26 14 -73 3 -73
-13 0 -36 29 -72 95 l-34 59 37 -22 c20 -12 37 -19 37 -17 0 10 -65 45 -82 45
-15 0 -16 -4 -8 -26 6 -14 10 -38 10 -54 0 -16 11 -42 26 -59 l26 -31 -23 0
c-28 0 -22 -5 16 -14 23 -5 26 -4 15 4 -12 8 -7 10 20 8 25 -2 36 -8 38 -22 3
-13 0 -16 -10 -10 -11 6 -11 5 1 -9 7 -9 18 -14 24 -10 6 3 7 1 3 -5 -4 -6 -2
-21 4 -32 9 -17 8 -20 -11 -20 -12 0 -32 8 -43 17 -20 17 -20 17 -6 -1 8 -11
28 -25 45 -32 35 -15 19 -19 -19 -4 -17 6 -26 6 -26 0 0 -6 6 -11 13 -11 6 -1
-1 -5 -18 -8 l-30 -7 44 -42 c31 -29 57 -44 83 -48 31 -5 36 -9 27 -20 -6 -8
-9 -25 -7 -39 3 -14 4 -25 2 -25 -2 0 -25 5 -52 10 -29 7 -57 7 -72 2 -25 -9
-25 -9 10 -27 19 -10 37 -19 39 -21 2 -2 -16 -21 -40 -43 -24 -21 -41 -42 -38
-45 4 -4 27 -2 52 5 35 8 66 8 131 -1 47 -6 99 -9 116 -5 33 7 36 19 15 68 -6
14 -2 17 21 17 58 -1 240 -29 271 -42 l33 -14 -35 -34 c-19 -19 -35 -38 -35
-42 0 -12 38 -9 46 4 4 6 3 8 -4 4 -22 -13 -21 12 2 33 16 15 31 20 50 17 33
-6 34 2 1 14 -40 15 -32 40 13 39 20 0 31 -3 24 -6 -6 -2 -10 -8 -7 -13 3 -4
-5 -6 -17 -3 -22 4 -22 4 1 -10 18 -11 28 -12 37 -3 6 6 9 15 6 20 -3 5 0 6 5
3 6 -4 28 -1 49 7 22 7 79 16 127 20 l88 7 -16 -31 c-9 -17 -13 -35 -10 -40
11 -18 75 -22 157 -10 60 8 96 9 128 1 24 -5 47 -7 50 -4 3 3 -14 22 -37 43
-24 21 -43 40 -43 43 0 2 16 13 37 22 32 15 34 19 18 27 -16 10 -60 6 -112 -8
-21 -6 -22 -4 -17 25 5 23 2 32 -9 37 -18 6 -31 34 -17 34 6 0 22 -13 37 -30
20 -23 29 -27 40 -19 7 6 13 18 13 26 0 8 5 11 12 7 7 -4 8 -3 4 4 -10 17 -14
15 -29 -14 -11 -21 -15 -23 -25 -11 -15 17 2 74 27 96 15 13 15 13 -1 8 -10
-3 -20 -1 -24 4 -3 6 -17 9 -30 6 -15 -2 -30 3 -40 14 -23 25 -28 24 -41 -11
-8 -20 -18 -30 -32 -30 -26 0 -27 -13 -3 -31 15 -13 16 -12 3 4 -12 15 -11 17
12 17 19 0 26 6 31 31 5 27 8 30 21 19 17 -14 21 -35 5 -25 -6 4 -7 -6 -3 -26
4 -22 3 -30 -5 -26 -13 9 -44 -2 -37 -13 9 -15 -401 -38 -530 -29 -185 13
-274 22 -286 29 -9 6 -8 23 5 74 19 76 19 79 6 71 -6 -4 -10 15 -10 51 0 49
-2 55 -15 44 -20 -17 -19 -2 2 24 9 12 -1 3 -23 -19 -30 -31 -45 -40 -62 -35
l-24 5 24 21 c35 31 94 65 101 57 4 -3 7 3 7 15 0 13 -6 22 -16 22 -8 0 -13
-4 -9 -9 3 -6 -15 -24 -39 -40 -24 -17 -52 -38 -61 -47 -21 -22 -30 -11 -14
18 11 20 10 21 -3 11 -12 -11 -14 -8 -10 17 3 18 10 30 19 30 10 0 13 -6 9
-15 -5 -14 -4 -14 16 0 13 8 34 15 48 16 14 0 19 3 12 6 -6 2 -10 9 -7 13 3 5
-10 3 -29 -5 -29 -13 -36 -13 -46 0 -17 21 -3 71 26 90 14 9 42 19 62 22 l37
5 -27 -24 c-15 -13 -37 -31 -50 -41 -32 -25 -2 -10 50 26 l44 29 -17 -33 c-14
-30 -14 -32 0 -14 19 25 30 63 20 73 -4 4 -10 2 -12 -5 -2 -7 -11 -9 -19 -6
-7 3 -12 9 -9 13 3 5 -6 7 -19 4 -34 -6 -44 28 -20 64 10 15 17 31 16 36 -6
19 11 46 29 46 23 0 24 8 2 40 -13 20 -14 22 -2 13 17 -14 29 -8 29 15 0 10
-7 12 -24 8 -15 -4 -28 0 -36 9 -18 22 -30 18 -30 -9 0 -14 -4 -27 -9 -30 -10
-6 -68 20 -63 29 5 11 2 35 -5 34 -5 0 -16 -9 -25 -20z m36 -39 c7 0 21 -9 31
-20 10 -11 24 -20 32 -20 15 0 16 -9 4 -29 -8 -12 -13 -11 -31 10 -12 13 -19
18 -15 12 3 -7 2 -13 -4 -13 -14 0 -8 -26 11 -47 9 -10 20 -30 23 -46 6 -23 4
-26 -9 -21 -22 9 -61 87 -45 93 8 2 7 6 -2 12 -11 7 -11 9 -1 9 7 0 10 5 6 11
-3 6 0 15 7 20 7 4 10 11 6 15 -3 4 -12 2 -19 -3 -7 -6 -25 -13 -41 -15 -22
-4 -25 -3 -16 8 6 7 8 18 4 24 -6 9 7 14 28 11 4 0 6 2 6 7 -3 19 4 24 8 5 2
-13 10 -23 17 -23z m99 17 c3 -8 -1 -14 -9 -14 -8 0 -14 6 -14 14 0 7 4 13 9
13 5 0 11 -6 14 -13z m13 -38 c3 -6 -1 -18 -10 -27 -15 -15 -16 -14 -16 11 0
27 13 36 26 16z m-29 -195 c-3 -3 -12 -4 -19 -1 -8 3 -5 6 6 6 11 1 17 -2 13
-5z m-150 -186 c15 -17 14 -18 -5 -18 -30 0 -62 46 -62 89 l0 36 26 -45 c14
-25 33 -53 41 -62z m173 -43 c0 -6 -68 -106 -77 -115 -3 -3 -4 10 -1 27 3 25
2 30 -8 23 -8 -8 -13 -3 -17 17 -7 36 -3 41 28 35 22 -4 24 -7 13 -20 -9 -11
-4 -10 14 3 15 11 28 23 28 28 0 8 20 10 20 2z m9 -97 c-7 -13 -14 -32 -16
-43 -2 -15 1 -13 13 8 18 33 25 35 17 5 -3 -13 -7 -35 -10 -50 -6 -30 -23 -39
-23 -12 0 9 -8 23 -17 30 -16 12 -16 15 -3 25 12 9 11 10 -7 6 -35 -8 -27 22
26 92 l26 35 3 -37 c2 -20 -3 -46 -9 -59z m-58 -59 c44 -31 38 -51 -8 -28 -21
10 -56 20 -78 23 -31 4 -25 1 25 -15 36 -11 72 -28 80 -36 29 -29 -73 -10
-115 23 -34 26 -36 29 -19 41 27 19 82 16 115 -8z m999 2 c0 -5 -11 -16 -25
-25 -24 -16 -25 -15 -25 3 0 19 12 29 38 30 6 1 12 -3 12 -8z m-3 -57 c2 -13
1 -15 -4 -4 -3 8 -11 19 -17 23 -7 6 -6 7 4 4 8 -2 16 -12 17 -23z m-638 -44
c119 -10 147 -9 463 17 71 6 158 -11 158 -30 0 -6 -5 -25 -12 -43 l-12 -33
-95 -1 c-53 0 -125 -5 -161 -10 -71 -10 -376 -5 -505 7 -44 4 -100 5 -124 2
-42 -5 -44 -4 -57 27 -20 49 -18 60 19 72 34 12 117 10 326 -8z m-372 -71 c12
-4 27 -20 35 -36 11 -22 22 -29 63 -36 74 -11 85 -18 50 -28 -18 -6 -60 -5
-108 2 -43 6 -98 9 -123 5 -24 -3 -44 -3 -44 -1 0 3 20 18 46 34 l45 29 -30
18 c-16 10 -28 21 -25 26 5 8 53 1 91 -13z m1103 13 c0 -4 -14 -16 -31 -26
l-30 -18 45 -29 c26 -16 46 -31 46 -35 0 -3 -18 -3 -40 1 -22 4 -79 2 -128 -5
-57 -7 -96 -8 -112 -2 -30 12 -19 18 54 29 40 7 53 14 66 38 11 20 30 34 56
42 47 14 74 16 74 5z m-950 -46 c0 -2 3 -12 6 -21 6 -15 1 -16 -42 -10 -65 9
-76 13 -69 25 6 9 105 15 105 6z m805 -5 c6 -11 -10 -16 -72 -26 -45 -7 -47
-6 -37 19 4 12 20 16 54 16 27 0 51 -4 55 -9z"/>
<path d="M620 565 c0 -19 5 -35 10 -35 6 0 10 6 10 14 0 8 8 17 18 19 16 4 16
5 0 6 -26 2 -22 19 5 24 16 3 13 5 -10 6 -31 1 -33 -1 -33 -34z"/>
<path d="M1371 581 c-1 -23 -2 -23 -19 -8 -26 24 -32 21 -32 -13 0 -16 5 -30
10 -30 6 0 10 7 10 17 0 14 2 14 20 -2 26 -24 33 -15 21 26 -7 28 -9 30 -10
10z"/>
<path d="M1420 565 c0 -33 2 -35 33 -34 30 2 30 2 5 6 -34 5 -37 20 -5 26 l22
4 -22 2 c-13 0 -23 5 -23 10 0 5 10 12 23 14 19 4 18 4 -5 6 -26 1 -28 -2 -28
-34z"/>
<path d="M704 576 c-11 -28 4 -48 33 -44 22 2 28 8 28 28 0 20 -6 26 -28 28
-18 2 -29 -2 -33 -12z m46 -16 c0 -13 -7 -20 -20 -20 -13 0 -20 7 -20 20 0 13
7 20 20 20 13 0 20 -7 20 -20z"/>
<path d="M796 568 c-3 -13 -6 -30 -6 -38 1 -12 3 -12 14 3 12 15 15 15 26 2 7
-8 17 -15 22 -15 7 0 6 5 -1 13 -8 10 -7 17 2 26 9 9 9 14 -3 21 -25 16 -47
11 -54 -12z m44 2 c0 -5 -7 -10 -15 -10 -8 0 -15 5 -15 10 0 6 7 10 15 10 8 0
15 -4 15 -10z"/>
<path d="M1277 558 c8 -46 13 -48 13 -5 0 21 -4 37 -10 37 -5 0 -7 -14 -3 -32z"/>
<path d="M888 573 c6 -2 12 -19 13 -36 l1 -32 10 30 c6 17 16 33 22 37 6 4 -5
7 -24 7 -19 0 -29 -3 -22 -6z"/>
<path d="M969 573 c0 -5 -3 -20 -5 -35 -3 -16 0 -28 6 -28 5 0 10 16 10 35 0
19 -2 35 -5 35 -3 0 -5 -3 -6 -7z"/>
<path d="M1018 568 c5 -7 12 -24 15 -38 4 -25 4 -25 6 2 0 15 9 32 19 37 14 9
11 10 -17 11 -26 0 -31 -3 -23 -12z"/>
<path d="M1093 550 c2 -30 5 -35 27 -35 21 0 26 5 28 33 2 18 -1 32 -8 32 -6
0 -9 -12 -8 -27 4 -39 -25 -37 -34 2 -6 29 -6 29 -5 -5z"/>
<path d="M1182 553 c2 -22 9 -29 29 -31 17 -2 29 3 32 12 11 27 -4 46 -35 46
-26 0 -29 -3 -26 -27z m48 -3 c0 -11 -6 -20 -14 -20 -7 0 -16 9 -19 20 -4 15
0 20 14 20 12 0 19 -7 19 -20z"/>
<path d="M1550 1346 c0 -2 13 -6 29 -8 17 -2 28 -1 25 4 -5 8 -54 12 -54 4z"/>
<path d="M1516 1323 c-6 -14 -5 -15 5 -6 7 7 10 15 7 18 -3 3 -9 -2 -12 -12z"/>
<path d="M1590 1316 c0 -2 9 -6 20 -9 11 -3 18 -1 14 4 -5 9 -34 13 -34 5z"/>
<path d="M1550 1285 c0 -8 5 -15 11 -15 5 0 7 5 3 12 -4 7 -3 8 4 4 7 -4 12
-16 12 -27 0 -17 -3 -18 -20 -7 -11 7 -20 18 -20 25 0 7 -5 13 -11 13 -6 0 -9
-6 -6 -14 3 -8 1 -17 -6 -20 -7 -2 -2 -5 9 -5 23 -1 51 -27 40 -38 -3 -3 -6
-1 -6 5 0 7 -4 12 -10 12 -5 0 -7 -7 -4 -15 7 -18 -26 -21 -42 -5 -11 11 -44
3 -44 -10 0 -5 5 -12 10 -15 6 -4 9 -1 8 6 -2 6 3 14 10 16 6 3 12 0 12 -6 0
-6 12 -11 26 -11 21 0 25 -4 20 -17 -5 -15 -4 -15 9 1 11 15 15 16 15 5 0 -27
24 -51 44 -43 13 5 14 9 5 14 -8 6 -6 11 8 19 17 8 22 6 31 -14 11 -23 10 -25
-17 -25 -16 0 -34 -7 -41 -15 -10 -12 -10 -15 3 -15 8 0 18 -6 21 -12 3 -7 3
-3 0 10 -7 28 12 29 27 1 8 -15 14 -18 22 -10 11 11 47 16 47 6 0 -3 -6 -14
-12 -25 -11 -17 -10 -22 2 -30 8 -5 11 -13 6 -17 -10 -10 -56 -11 -50 -1 3 4
-1 8 -8 8 -7 0 -2 10 12 21 25 20 25 20 1 9 -18 -9 -25 -9 -31 0 -6 9 -9 8
-13 -6 -4 -16 -5 -17 -6 -1 -2 25 -28 21 -34 -5 -6 -22 -6 -22 8 -4 11 14 15
16 15 5 -1 -27 -27 -49 -59 -49 -19 0 -30 -4 -26 -10 4 -6 11 -8 16 -5 14 9
79 -17 79 -32 0 -6 -8 -17 -17 -22 -10 -6 -13 -10 -8 -10 18 0 40 24 40 44 0
11 7 20 15 21 22 0 63 15 78 27 10 8 10 13 -2 26 -10 11 -12 21 -6 31 20 31
12 43 -25 37 -19 -3 -37 -1 -40 4 -4 5 1 9 9 9 18 0 20 8 6 30 -6 10 -4 21 8
35 9 11 10 14 2 8 -17 -15 -34 -17 -25 -3 3 5 -7 3 -22 -5 -26 -14 -28 -14
-31 7 -3 17 -6 18 -13 7 -7 -11 -9 -11 -9 3 0 26 11 48 24 48 7 0 13 7 13 15
0 8 -9 15 -19 15 -10 0 -18 5 -18 10 0 6 -7 10 -15 10 -8 0 -15 -7 -15 -15z
m83 -268 c7 -19 -8 -40 -25 -35 -12 2 -13 9 -7 26 9 25 24 29 32 9z"/>
<path d="M1621 1235 c-1 -22 15 -30 49 -24 l35 6 -37 2 c-20 0 -39 7 -41 14
-3 6 -6 8 -6 2z"/>
<path d="M672 1223 c-6 -2 -10 -8 -7 -13 3 -5 -13 -21 -35 -37 -21 -15 -42
-34 -45 -41 -3 -8 19 7 49 33 46 39 55 43 59 28 3 -12 5 -8 6 10 1 27 -3 30
-27 20z"/>
<path d="M628 1203 c7 -3 16 -2 19 1 4 3 -2 6 -13 5 -11 0 -14 -3 -6 -6z"/>
<path d="M1498 1173 c7 -3 16 -2 19 1 4 3 -2 6 -13 5 -11 0 -14 -3 -6 -6z"/>
<path d="M665 1144 c-9 -15 -12 -23 -6 -20 11 7 35 46 28 46 -3 0 -12 -12 -22
-26z"/>
<path d="M1532 1143 c-18 -8 -30 -18 -28 -21 3 -3 12 1 20 7 8 7 19 10 25 7 5
-3 11 1 15 9 7 18 8 18 -32 -2z"/>
<path d="M420 1094 c0 -21 4 -45 9 -53 5 -8 7 5 4 35 -7 61 -13 70 -13 18z"/>
<path d="M455 1000 c10 -11 20 -20 23 -20 3 0 -3 9 -13 20 -10 11 -20 20 -23
20 -3 0 3 -9 13 -20z"/>
<path d="M1720 971 c0 -6 4 -13 10 -16 6 -3 7 1 4 9 -7 18 -14 21 -14 7z"/>
<path d="M1550 955 c9 -11 9 -21 -4 -46 -20 -40 -20 -39 2 -39 14 0 15 2 2 10
-11 7 -7 10 20 11 25 1 29 3 12 6 -18 4 -23 10 -19 25 7 24 -1 48 -15 48 -6 0
-5 -6 2 -15z"/>
<path d="M1657 914 c-3 -4 -2 -15 4 -25 7 -13 6 -19 -1 -19 -6 0 -13 7 -17 16
-5 13 -9 12 -29 -7 -12 -11 -27 -19 -32 -15 -5 3 -9 -1 -9 -8 0 -8 8 -11 19
-8 14 3 21 -2 25 -17 7 -27 18 -27 20 -1 1 12 -4 20 -13 20 -9 0 -14 6 -11 13
2 6 10 12 18 12 10 0 14 -11 13 -35 -3 -65 -4 -70 -19 -70 -8 0 -15 -7 -15
-15 0 -8 -7 -15 -15 -15 -8 0 -15 -5 -15 -11 0 -6 9 -8 23 -3 12 4 31 7 42 6
17 -1 17 1 -5 13 -25 14 -25 14 -2 15 29 0 38 -24 19 -53 -13 -20 -13 -26 -1
-42 18 -25 18 -33 -3 -38 -11 -3 -6 -5 10 -6 l29 -1 -20 33 c-18 32 -19 35 -2
57 12 16 23 21 38 15 17 -5 22 -2 22 12 0 11 -3 14 -8 7 -8 -12 -46 -3 -56 14
-9 16 4 41 19 36 7 -3 16 0 21 7 5 9 2 11 -8 6 -23 -8 -29 2 -16 27 10 19 10
20 -5 7 -10 -8 -17 -9 -17 -3 0 6 12 20 27 32 20 16 28 18 34 8 5 -7 6 -20 4
-28 -3 -9 6 -20 23 -27 26 -12 26 -12 7 5 -11 9 -20 26 -20 37 1 26 -14 36
-37 24 -15 -8 -20 -6 -26 11 -4 11 -11 18 -15 14z"/>
<path d="M330 863 c0 -5 9 -19 20 -33 13 -15 18 -18 14 -7 -5 13 -2 16 10 11
9 -3 16 -11 16 -17 0 -6 3 -7 7 -4 3 4 -6 18 -21 32 -27 25 -46 32 -46 18z"/>
<path d="M1531 844 c0 -11 3 -14 6 -6 3 7 2 16 -1 19 -3 4 -6 -2 -5 -13z"/>
<path d="M1513 790 c-7 -10 -9 -21 -5 -24 4 -2 12 7 19 20 13 29 3 32 -14 4z"/>
<path d="M1764 794 c-18 -14 -18 -15 4 -4 12 6 22 13 22 15 0 8 -5 6 -26 -11z"/>
<path d="M392 765 c15 -16 29 -27 31 -24 3 2 -10 15 -27 28 l-31 24 27 -28z"/>
<path d="M1550 760 c-13 -8 -12 -10 3 -10 9 0 17 5 17 10 0 12 -1 12 -20 0z"/>
<path d="M665 742 c4 -8 11 -26 15 -40 7 -22 8 -23 9 -6 1 11 -6 29 -15 40 -8
10 -12 13 -9 6z"/>
<path d="M1598 658 c5 -5 16 -8 23 -6 8 3 3 7 -10 11 -17 4 -21 3 -13 -5z"/>
<path d="M1029 403 c-13 -16 -12 -17 4 -4 16 13 21 21 13 21 -2 0 -10 -8 -17
-17z"/>
<path d="M1121 393 c13 -18 31 -33 41 -33 22 0 23 13 3 30 -13 11 -14 10 -9
-4 9 -24 -4 -20 -32 12 l-25 27 22 -32z"/>
<path d="M650 260 c0 -22 5 -40 10 -40 6 0 10 6 10 13 0 8 10 19 23 25 l22 11
-22 0 c-13 1 -23 5 -23 10 0 5 10 12 23 14 16 3 13 5 -10 6 -32 1 -33 0 -33
-39z"/>
<path d="M734 275 c-8 -30 10 -55 40 -55 34 0 48 15 44 46 -3 26 -7 29 -40 32
-33 3 -38 0 -44 -23z m64 -9 c5 -24 -10 -38 -31 -30 -17 6 -23 35 -10 48 12
12 38 1 41 -18z"/>
<path d="M840 260 c0 -22 5 -40 10 -40 6 0 10 7 10 15 0 8 6 15 14 15 8 0 16
-7 20 -15 3 -8 13 -15 22 -15 16 0 16 1 0 19 -13 14 -14 20 -5 23 27 9 0 38
-36 38 -34 0 -35 -1 -35 -40z m60 20 c0 -5 -9 -10 -20 -10 -11 0 -20 5 -20 10
0 6 9 10 20 10 11 0 20 -4 20 -10z"/>
<path d="M945 291 c12 -5 19 -17 20 -36 0 -16 5 -30 11 -32 7 -2 10 5 7 20 -3
14 2 31 12 40 15 16 13 17 -27 16 -31 0 -37 -3 -23 -8z"/>
<path d="M1026 264 c-17 -38 -14 -56 6 -36 16 16 45 15 51 0 2 -7 8 -9 13 -5
10 10 -25 77 -41 77 -6 0 -19 -16 -29 -36z m38 1 c3 -8 1 -15 -4 -15 -6 0 -10
7 -10 15 0 8 2 15 4 15 2 0 6 -7 10 -15z"/>
<path d="M1120 260 c0 -40 0 -40 38 -39 30 2 32 3 10 6 -24 4 -28 9 -28 39 0
19 -4 34 -10 34 -5 0 -10 -18 -10 -40z"/>
<path d="M1203 263 c2 -37 3 -38 42 -40 34 -1 36 0 11 5 -35 8 -37 24 -4 34
23 6 23 6 1 7 -36 2 -36 19 -1 24 29 3 28 4 -9 5 l-42 2 2 -37z"/>
<path d="M1313 293 c22 -6 22 -16 -3 -38 -31 -28 -24 -35 35 -35 30 0 55 5 55
10 0 14 33 13 48 -2 20 -20 23 -2 6 36 -22 45 -40 46 -61 1 -13 -28 -23 -35
-45 -35 -35 0 -35 7 -1 42 l27 28 -40 -1 c-21 -1 -31 -3 -21 -6z m117 -33 c0
-5 -4 -10 -10 -10 -5 0 -10 5 -10 10 0 6 5 10 10 10 6 0 10 -4 10 -10z"/>
</g>
</svg>
